#!OML:ASF I:\Actors\actors\Patient Classification 2\Patient 1\Session 1\actor1.ASF
:FULLY-SPECIFIED
:DEGREES
103
root -0.746691 18.6608 5.7146 -0.367957 -5.02561 -5.78489
lowerback 5.32238 0.343894 2.97833
upperback 0.154548 0.681113 1.44395
thorax -2.80896 0.308284 -0.236221
lowerneck -11.7038 -1.98666 -2.90073
upperneck 17.6091 -2.80993 3.3255
head 7.42488 -1.23602 1.29005
rclavicle -2.14936e-014 -4.57205e-015
rhumerus -50.092 18.0826 -93.9209
rradius 61.9568
rwrist -3.89349
rhand -2.46232 -24.6434
rfingers 7.12502
rthumb 23.2299 -53.2623
lclavicle -2.14936e-014 -4.57205e-015
lhumerus -41.2074 -11.1403 90.9929
lradius 55.8776
lwrist 18.8777
lhand 1.86006 -21.7611
lfingers 7.12502
lthumb 27.3708 6.2713
rfemur 8.27276 -1.23877 19.4784
rtibia -1.51076e-014
rfoot -12.4494 -5.48772
rtoes -9.10777
lfemur -4.55714 -4.45907 -8.62378
ltibia 25.1206
lfoot -23.2509 11.549
ltoes -55.7339
104
root -0.754108 18.6572 5.70116 -0.576893 -4.87079 -5.9157
lowerback 5.74437 0.276524 2.98693
upperback 0.316759 0.606549 1.49613
thorax -2.88063 0.271629 -0.184004
lowerneck -11.6846 -2.21657 -3.12855
upperneck 17.307 -3.08885 3.40789
head 7.33738 -1.37834 1.32651
rclavicle -1.43498e-014 -7.95139e-016
rhumerus -49.5337 18.6275 -92.7994
rradius 62.9547
rwrist -5.27395
rhand -1.93101 -24.8027
rfingers 7.12502
rthumb 23.7396 -53.3564
lclavicle -1.43498e-014 -7.95139e-016
lhumerus -40.5426 -11.0716 89.5586
lradius 57.0065
lwrist 21.4359
lhand 2.3373 -20.5332
lfingers 7.12502
lthumb 27.8271 7.42627
rfemur 8.51515 -1.39638 19.6504
rtibia 2.22639e-014
rfoot -12.468 -5.47189
rtoes -8.98766
lfemur -4.42458 -4.42682 -8.41622
ltibia 25.1574
lfoot -23.1647 11.3094
ltoes -55.7015
105
root -0.753153 18.6545 5.69591 -0.763017 -5.11236 -5.97994
lowerback 6.03004 0.355258 3.06442
upperback 0.528222 0.72185 1.48431
thorax -2.8184 0.330185 -0.250487
lowerneck -11.5472 -2.41026 -3.38668
upperneck 16.866 -3.32932 3.58904
head 7.18576 -1.49714 1.40512
rclavicle -1.51573e-015 2.18663e-015
rhumerus -48.6335 18.983 -91.3286
rradius 63.8327
rwrist -6.60328
rhand -1.19998 -25.4607
rfingers 7.12502
rthumb 24.4405 -53.9216
lclavicle -1.51573e-015 2.18663e-015
lhumerus -39.6168 -11.0137 87.9603
lradius 57.8256
lwrist 24.064
lhand 2.12426 -19.635
lfingers 7.12502
lthumb 27.6234 8.35718
rfemur 8.68329 -1.15597 19.7248
rtibia 1.35174e-014
rfoot -12.4402 -5.51969
rtoes -9.31365
lfemur -4.16824 -4.53611 -8.40556
ltibia 25.2
lfoot -23.3634 11.5231
ltoes -55.6434
106
root -0.750999 18.6554 5.67737 -0.811572 -5.26806 -5.9352
lowerback 6.34795 0.402874 3.02111
upperback 0.689215 0.789882 1.44763
thorax -2.82833 0.365342 -0.271921
lowerneck -11.5171 -2.67846 -3.58859
upperneck 16.4459 -3.65945 3.66086
head 7.0621 -1.6638 1.42944
rclavicle 1.09953e-014 1.66979e-014
rhumerus -47.4171 19.2929 -89.5061
rradius 64.535
rwrist -8.00912
rhand -0.173033 -26.3726
rfingers 7.12502
rthumb 25.4246 -54.6971
lclavicle 1.09953e-014 1.66979e-014
lhumerus -38.5038 -10.7532 86.0719
lradius 58.4954
lwrist 26.3579
lhand 2.04912 -18.8694
lfingers 7.12502
lthumb 27.5516 9.13433
rfemur 8.64998 -1.00078 19.6785
rtibia -2.62396e-014
rfoot -12.3401 -5.56514
rtoes -9.40317
lfemur -4.16008 -4.47201 -8.46946
ltibia 25.2341
lfoot -23.3458 11.6244
ltoes -55.7126
107
root -0.757526 18.6601 5.63507 -0.621613 -4.98659 -5.89208
lowerback 6.72961 0.28782 2.80385
upperback 0.7164 0.637136 1.47336
thorax -3.02047 0.289961 -0.11305
lowerneck -12.3664 -3.26637 -3.62567
upperneck 16.803 -4.35774 3.20591
head 7.346 -2.02979 1.20627
rclavicle -9.80257e-015 1.70955e-014
rhumerus -45.8289 19.5204 -87.2264
rradius 65.0049
rwrist -9.87712
rhand 1.81078 -27.0691
rfingers 7.12502
rthumb 27.3236 -55.109
lclavicle -9.80257e-015 1.70955e-014
lhumerus -37.1754 -10.0985 83.8994
lradius 58.9846
lwrist 28.4819
lhand 2.46374 -18.021
lfingers 7.12502
lthumb 27.948 9.91882
rfemur 8.33884 -1.28824 19.6721
rtibia -2.38542e-015
rfoot -12.2284 -5.61728
rtoes -9.26902
lfemur -4.65447 -4.08311 -8.35487
ltibia 25.2703
lfoot -22.8811 11.2039
ltoes -55.9033
108
root -0.754301 18.661 5.61406 -0.570145 -5.10944 -5.84878
lowerback 6.79238 0.280675 2.6805
upperback 0.953992 0.614721 1.5016
thorax -2.81212 0.283965 -0.0125936
lowerneck -12.5754 -3.51888 -3.86231
upperneck 16.3787 -4.64219 3.2413
head 7.26184 -2.17648 1.22523
rclavicle -9.26834e-015 2.96189e-014
rhumerus -43.7517 19.5432 -84.4191
rradius 65.3669
rwrist -12.0053
rhand 4.38184 -27.8385
rfingers 7.12502
rthumb 29.7802 -55.4653
lclavicle -9.26834e-015 2.96189e-014
lhumerus -35.4877 -9.07109 81.4805
lradius 59.3126
lwrist 30.5339
lhand 3.10362 -17.1472
lfingers 7.12502
lthumb 28.5596 10.6914
rfemur 8.1848 -1.16729 19.6315
rtibia 6.36111e-015
rfoot -12.1455 -5.69222
rtoes -9.5677
lfemur -4.78216 -3.95246 -8.39825
ltibia 25.3192
lfoot -22.8445 11.2406
ltoes -55.8979
109
root -0.750173 18.6625 5.59395 -0.468225 -5.22981 -5.81346
lowerback 6.65673 0.277375 2.53439
upperback 1.26989 0.586591 1.55196
thorax -2.41283 0.277056 0.125282
lowerneck -12.9032 -3.81443 -4.08581
upperneck 15.9464 -4.98082 3.27144
head 7.19838 -2.34692 1.23255
rclavicle 8.99501e-015 2.04748e-014
rhumerus -41.358 19.2431 -81.2012
rradius 65.584
rwrist -13.542
rhand 6.57822 -28.3391
rfingers 7.12502
rthumb 31.8741 -55.5702
lclavicle 8.99501e-015 2.04748e-014
lhumerus -33.6603 -7.91605 78.8588
lradius 59.662
lwrist 32.483
lhand 3.52549 -16.4035
lfingers 7.12502
lthumb 28.9626 11.3667
rfemur 7.98317 -1.04908 19.5971
rtibia -1.35174e-014
rfoot -12.0421 -5.76738
rtoes -9.91173
lfemur -4.96857 -3.76914 -8.42681
ltibia 25.3831
lfoot -22.7659 11.2164
ltoes -55.8698
110
root -0.747004 18.6639 5.57337 -0.355524 -5.35519 -5.76826
lowerback 6.67623 0.285569 2.38797
upperback 1.46861 0.582788 1.57603
thorax -2.22059 0.278786 0.232864
lowerneck -13.1007 -4.10994 -4.25481
upperneck 15.5242 -5.33532 3.30692
head 7.11544 -2.52253 1.23291
rclavicle -4.24902e-015 8.54774e-015
rhumerus -38.9312 18.5786 -77.6779
rradius 65.6424
rwrist -14.8245
rhand 8.62198 -28.5509
rfingers 7.12502
rthumb 33.8182 -55.3749
lclavicle -4.24902e-015 8.54774e-015
lhumerus -32.0028 -6.79634 76.0389
lradius 59.8631
lwrist 34.1931
lhand 3.6371 -16.413
lfingers 7.12502
lthumb 29.0692 11.3389
rfemur 7.76356 -0.92618 19.5529
rtibia -3.26007e-014
rfoot -11.9119 -5.85988
rtoes -10.2084
lfemur -5.18061 -3.49524 -8.45526
ltibia 25.447
lfoot -22.6356 11.1407
ltoes -55.8953
111
root -0.745069 18.6652 5.55382 -0.232553 -5.47859 -5.65999
lowerback 6.96174 0.305795 2.25426
upperback 1.43249 0.610021 1.52631
thorax -2.41751 0.291202 0.252408
lowerneck -13.1304 -4.38767 -4.49374
upperneck 15.2701 -5.6908 3.49745
head 7.06542 -2.69059 1.29669
rclavicle -2.08972e-014 3.97569e-016
rhumerus -36.6027 17.4484 -73.9076
rradius 65.5406
rwrist -16.117
rhand 10.8673 -29.046
rfingers 7.12502
rthumb 35.9484 -55.3752
lclavicle -2.08972e-014 3.97569e-016
lhumerus -30.4793 -5.74967 72.998
lradius 59.5506
lwrist 35.7714
lhand 3.6111 -17.9884
lfingers 7.12502
lthumb 29.0443 9.76768
rfemur 7.53001 -0.804987 19.4416
rtibia 1.59028e-015
rfoot -11.7791 -5.97574
rtoes -10.6549
lfemur -5.41388 -3.23266 -8.55318
ltibia 25.512
lfoot -22.561 11.1027
ltoes -55.9203
